<?xml version="1.0" encoding="utf-8"?>
<!-- Generator: Adobe Illustrator 22.0.1, SVG Export Plug-In . SVG Version: 6.00 Build 0)  -->
<svg version="1.1" id="Layer_1" xmlns="http://www.w3.org/2000/svg" xmlns:xlink="http://www.w3.org/1999/xlink" x="0px" y="0px"
	 viewBox="0 0 20 20" style="enable-background:new 0 0 20 20;" xml:space="preserve">
<style type="text/css">
	.st0{fill:#FF114D;}
</style>
<title>beamed-note</title>
<path class="st0" d="M17,1v13c0,1.2-1.3,3-3.7,3C12,17,11,16.3,11,15.1c0-1.6,1.4-2.6,3-2.6c0.4,0,0.8,0.1,1,0.1V5.4L8,6.6V16l0,0
	c0,1.2-1.3,3-3.7,3C3,19,2,18.3,2,17.1c0-1.6,1.4-2.6,3-2.6c0.4,0,0.8,0.1,1,0.1V3L17,1z"/>
</svg>
