<?xml version="1.0" encoding="utf-8"?>
<!-- Generator: Adobe Illustrator 22.0.1, SVG Export Plug-In . SVG Version: 6.00 Build 0)  -->
<svg version="1.1" id="Layer_1" xmlns="http://www.w3.org/2000/svg" xmlns:xlink="http://www.w3.org/1999/xlink" x="0px" y="0px"
	 viewBox="0 0 20 20" style="enable-background:new 0 0 20 20;" xml:space="preserve">
<style type="text/css">
	.st0{fill:#818181;}
</style>
<title>info</title>
<path class="st0" d="M12.4,0c1.3,0,2,0.9,2,2c0,1.3-1.2,2.5-2.7,2.5c-1.3,0-2-0.8-2-2C9.8,1.4,10.7,0,12.4,0z M8.3,20
	c-1.1,0-1.8-0.7-1.1-3.5l1.2-5.1c0.2-0.8,0.2-1.1,0-1.1c-0.3,0-1.7,0.6-2.5,1.1l-0.5-0.9C8,8.3,10.9,7,12.2,7c1.1,0,1.2,1.3,0.7,3.2
	l-1.4,5.4c-0.2,0.9-0.1,1.3,0.1,1.3c0.3,0,1.4-0.4,2.4-1.2l0.6,0.8C12.1,19,9.4,20,8.3,20z"/>
</svg>
