<?xml version="1.0" encoding="utf-8"?>
<!-- Generator: Adobe Illustrator 22.0.1, SVG Export Plug-In . SVG Version: 6.00 Build 0)  -->
<svg version="1.1" xmlns="http://www.w3.org/2000/svg" xmlns:xlink="http://www.w3.org/1999/xlink" x="0px" y="0px"
	 viewBox="0 0 766 766" style="enable-background:new 0 0 766 766;" xml:space="preserve">
<style type="text/css">
	.st0{fill:#ECFF37;}
	.st1{fill:#FF0F4D;}
	.st2{fill:#FF114D;}
	.st3{fill:#FFFFFF;}
</style>
<g id="Layer_1">
</g>
<g id="Layer_2">
	<g>
		<g>
			<path class="st0" d="M383,157.9c-124.3,0-225.1,100.8-225.1,225.1S258.7,608.1,383,608.1S608.1,507.3,608.1,383
				S507.3,157.9,383,157.9z M548.6,386.5c0,0.6,0,1.2,0,1.8c0,0.5,0,0.9,0,1.4c0,1-0.1,2.1-0.1,3.1c0,0.1,0,0.1,0,0.2
				c-1,18.3-5.1,36.7-12.5,54.4c-10.3,24.7-26.2,45.4-44.8,61.5c-7.8,6.8-16,12.7-24.6,17.6c-27.6,16.3-58.1,23.8-85.3,21.1v-48.4
				c19.4-0.3,36.7-4.7,51.6-11.8c0.1,0,0.2-0.1,0.3-0.1c0.4-0.2,0.7-0.4,1.1-0.5c8.9-4.5,16.8-9.8,23.7-15.8
				c9.4-8.1,17.2-17.5,23.4-27.7c0.2-0.4,0.4-0.7,0.7-1.1c0.1-0.2,0.2-0.4,0.3-0.6c10.5-18.2,15.7-38.6,15.8-58.4
				c-0.3-25.2-8.7-48.8-22.8-68.1c-0.1-0.1-0.2-0.2-0.2-0.3c-0.3-0.4-0.6-0.8-0.9-1.2c-10.3-13.4-23.3-24.4-38-32.2
				c-5.2-2.8-10.7-5.2-16.3-7.1c-4.7-1.6-9.4-2.9-14.4-3.8c-13.6-2.6-27-2.9-39.9-1c-22.8,3.5-43.2,13.3-59.4,27.6
				c-0.2,0.2-0.3,0.3-0.5,0.5c-0.2,0.2-0.4,0.4-0.6,0.6c-12.6,11.5-22.8,26.1-29.5,43c-2.9,7.4-5.1,15.5-6.6,23.9
				c-0.3,2.1-0.6,4.2-0.8,6.3c-4.7,46.2,25.1,101.6,60.3,113.1l11.6,35.5l-35.9,9.7c-93.4-53-103.5-161-66.6-226.6
				c3-5.4,6.4-10.6,9.9-15.5c5.1-7.3,10.7-14.1,16.9-20.3c16.4-16.5,35.7-29,56.4-37.3c34.7-14.1,74-16.5,111.9-4.5
				c1.5,0.5,3,1,4.4,1.5c0.3,0.1,0.7,0.2,1,0.3c0.8,0.3,1.5,0.5,2.3,0.8c0.5,0.2,1,0.4,1.4,0.5c0.6,0.2,1.3,0.5,1.9,0.7
				c0.5,0.2,0.9,0.4,1.4,0.6c0.7,0.3,1.4,0.6,2.1,0.8c0.3,0.1,0.6,0.2,0.9,0.4c61.1,26.1,100.8,86,100.8,152.2c0,0.1,0,0.3,0,0.4
				C548.6,384.7,548.6,385.6,548.6,386.5z"/>
		</g>
	</g>
</g>
</svg>
