<?xml version="1.0" encoding="utf-8"?>
<!-- Generator: Adobe Illustrator 22.0.1, SVG Export Plug-In . SVG Version: 6.00 Build 0)  -->
<svg version="1.1" xmlns="http://www.w3.org/2000/svg" xmlns:xlink="http://www.w3.org/1999/xlink" x="0px" y="0px"
	 viewBox="0 0 3858 1158" style="enable-background:new 0 0 3858 1158;" xml:space="preserve">
<style type="text/css">
	.st0{fill:#ECFF37;}
	.st1{fill:#FF0F4D;}
	.st2{fill:#FF114D;}
	.st3{fill:#FFFFFF;}
</style>
<g id="Layer_1">
</g>
<g id="Layer_2">
	<g>
		<g>
			<g>
				<path class="st3" d="M467.7,118c-166.2,0-301,134.8-301,301s134.8,301,301,301s301-134.8,301-301S633.9,118,467.7,118z
					 M689.1,423.7c0,0.8,0,1.6-0.1,2.4c0,0.6,0,1.3-0.1,1.9c-0.1,1.4-0.1,2.8-0.2,4.2c0,0.1,0,0.2,0,0.3c-1.4,24.5-6.8,49-16.7,72.8
					c-13.8,33.1-35,60.7-59.9,82.2c-10.4,9.1-21.5,16.9-32.9,23.5c-36.9,21.8-77.7,31.8-114.1,28.3v-64.7c25.9-0.4,49-6.2,69-15.8
					c0.1-0.1,0.3-0.1,0.4-0.2c0.5-0.2,1-0.5,1.4-0.7c11.8-6,22.4-13.1,31.7-21.2c12.5-10.8,23-23.4,31.3-37.1c0.3-0.5,0.6-1,0.9-1.5
					c0.2-0.3,0.3-0.5,0.5-0.8c14.1-24.3,21-51.6,21.1-78.1c-0.4-33.7-11.6-65.3-30.5-91.1c-0.1-0.1-0.2-0.3-0.3-0.4
					c-0.4-0.6-0.8-1.1-1.3-1.7c-13.8-17.9-31.2-32.6-50.9-43c-7-3.7-14.3-6.9-21.9-9.5c-6.2-2.1-12.6-3.8-19.2-5.1
					c-18.1-3.5-36.1-3.8-53.4-1.3c-30.4,4.7-57.8,17.8-79.5,37c-0.2,0.2-0.5,0.4-0.7,0.6c-0.3,0.2-0.5,0.5-0.8,0.7
					c-16.9,15.4-30.5,34.9-39.4,57.6c-3.9,9.9-6.8,20.7-8.8,31.9c-0.4,2.8-0.8,5.6-1.1,8.4c-6.3,61.7,33.5,135.9,80.6,151.3
					l15.6,47.5l-48.1,12.9c-125-70.9-138.4-215.3-89-303c4.1-7.2,8.5-14.2,13.3-20.8c6.8-9.8,14.3-18.9,22.5-27.2
					c22-22.1,47.8-38.8,75.4-49.9c46.4-18.8,99-22.1,149.6-6c2,0.6,4,1.3,5.9,2c0.4,0.2,0.9,0.3,1.3,0.5c1,0.4,2,0.7,3,1.1
					c0.6,0.2,1.3,0.5,1.9,0.7c0.9,0.3,1.7,0.7,2.6,1c0.6,0.2,1.2,0.5,1.9,0.8c0.9,0.4,1.8,0.7,2.8,1.1c0.4,0.2,0.8,0.3,1.2,0.5
					c81.7,34.9,134.8,115,134.8,203.5c0,0.2,0,0.4,0,0.6C689.2,421.3,689.2,422.5,689.1,423.7z"/>
			</g>
		</g>
		<g>
			<path class="st3" d="M1186.7,423.9c0,54.5-14.4,97.1-43.1,127.9c-28.7,30.7-68.8,46.1-120.1,46.1c-32.1,0-60.5-7-85-21.1
				s-43.4-34.3-56.6-60.6c-13.2-26.4-19.8-57.1-19.8-92.2c0-54.7,14.3-97.2,42.8-127.6c28.5-30.3,68.7-45.5,120.4-45.5
				c32.1,0,60.5,7,85,21c24.6,14,43.4,34,56.6,60.2C1180.1,358.2,1186.7,388.8,1186.7,423.9z M955.2,423.9
				c0,33.1,5.4,58.2,16.3,75.2c10.9,17,28.6,25.5,53.2,25.5c24.4,0,41.9-8.4,52.6-25.3c10.7-16.9,16-42,16-75.3
				c0-33.1-5.4-58-16.2-74.6c-10.8-16.6-28.4-24.9-53-24.9c-24.4,0-41.9,8.2-52.7,24.7S955.2,390.6,955.2,423.9z"/>
			<path class="st3" d="M1571.2,591.9h-91.3V396.4c0-24.2-4.3-42.3-12.9-54.3c-8.6-12.1-22.3-18.1-41-18.1c-25.6,0-44,8.5-55.4,25.6
				s-17.1,45.4-17.1,84.9v157.5h-91.3V257.1h69.8l12.3,42.8h5.1c10.2-16.2,24.2-28.4,42.1-36.7c17.9-8.3,38.2-12.4,60.9-12.4
				c38.9,0,68.5,10.5,88.6,31.6c20.2,21.1,30.2,51.5,30.2,91.2V591.9z"/>
			<path class="st3" d="M1765.2,423.9v168h-92.8V154.1H1800c59.5,0,103.5,10.8,132.1,32.5c28.5,21.7,42.8,54.6,42.8,98.7
				c0,25.8-7.1,48.7-21.3,68.7c-14.2,20.1-34.2,35.8-60.2,47.2c65.9,98.4,108.8,162,128.8,190.7h-103l-104.5-168H1765.2z
				 M1765.2,348.5h29.9c29.3,0,51-4.9,65-14.7c14-9.8,21-25.2,21-46.1c0-20.8-7.1-35.5-21.4-44.3c-14.3-8.8-36.4-13.2-66.3-13.2
				h-28.1V348.5z"/>
			<path class="st3" d="M2221.6,597.9c-53.9,0-96-14.9-126.4-44.6c-30.3-29.7-45.5-71.9-45.5-126.4c0-56.1,14-99.5,42.1-130.1
				c28-30.6,66.8-46,116.3-46c47.3,0,84.1,13.5,110.5,40.4c26.4,27,39.5,64.2,39.5,111.7v44.3h-215.9c1,26,8.7,46.2,23.1,60.8
				c14.4,14.6,34.5,21.9,60.5,21.9c20.2,0,39.2-2.1,57.2-6.3c18-4.2,36.7-10.9,56.3-20.1v70.7c-16,8-33,13.9-51.2,17.8
				C2269.9,596,2247.7,597.9,2221.6,597.9z M2208.7,315.8c-19.4,0-34.5,6.1-45.5,18.4c-11,12.3-17.3,29.7-18.9,52.3h128.2
				c-0.4-22.6-6.3-40-17.7-52.3S2228.1,315.8,2208.7,315.8z"/>
			<path class="st3" d="M2616.3,597.9c-39.3,0-70.2-14.3-92.5-42.8h-4.8c3.2,28,4.8,44.1,4.8,48.5v135.6h-91.3V257.1h74.3l12.9,43.4
				h4.2c21.4-33.1,53-49.7,94.9-49.7c39.5,0,70.5,15.3,92.8,45.8c22.4,30.5,33.5,73,33.5,127.3c0,35.7-5.2,66.8-15.7,93.1
				c-10.5,26.4-25.4,46.4-44.8,60.2C2665.2,591,2642.4,597.9,2616.3,597.9z M2589.3,323.9c-22.6,0-39,6.9-49.4,20.8
				c-10.4,13.9-15.8,36.8-16.2,68.7v9.9c0,35.9,5.3,61.7,16,77.3c10.7,15.6,27.6,23.4,50.8,23.4c40.9,0,61.4-33.7,61.4-101.2
				c0-32.9-5-57.6-15.1-74.1C2626.7,332.2,2610.9,323.9,2589.3,323.9z"/>
			<path class="st3" d="M2972,597.9c-53.9,0-96-14.9-126.4-44.6c-30.3-29.7-45.5-71.9-45.5-126.4c0-56.1,14-99.5,42.1-130.1
				c28-30.6,66.8-46,116.3-46c47.3,0,84.1,13.5,110.5,40.4c26.4,27,39.5,64.2,39.5,111.7v44.3h-215.9c1,26,8.7,46.2,23.1,60.8
				c14.4,14.6,34.5,21.9,60.5,21.9c20.2,0,39.2-2.1,57.2-6.3c18-4.2,36.7-10.9,56.3-20.1v70.7c-16,8-33,13.9-51.2,17.8
				C3020.3,596,2998.2,597.9,2972,597.9z M2959.1,315.8c-19.4,0-34.5,6.1-45.5,18.4c-11,12.3-17.3,29.7-18.9,52.3h128.2
				c-0.4-22.6-6.3-40-17.7-52.3S2978.5,315.8,2959.1,315.8z"/>
			<path class="st3" d="M3395.4,591.9l-17.7-45.5h-2.4c-15.4,19.4-31.2,32.8-47.5,40.3c-16.3,7.5-37.5,11.2-63.6,11.2
				c-32.1,0-57.4-9.2-75.9-27.5c-18.5-18.4-27.7-44.5-27.7-78.5c0-35.5,12.4-61.7,37.3-78.6c24.9-16.9,62.3-26.2,112.4-28l58.1-1.8
				v-14.7c0-33.9-17.4-50.9-52.1-50.9c-26.8,0-58.2,8.1-94.3,24.3l-30.2-61.7c38.5-20.2,81.3-30.2,128.2-30.2
				c44.9,0,79.4,9.8,103.3,29.3c24,19.6,35.9,49.3,35.9,89.2v223.1H3395.4z M3368.5,436.8l-35.3,1.2c-26.6,0.8-46.3,5.6-59.3,14.4
				c-13,8.8-19.5,22.2-19.5,40.1c0,25.8,14.8,38.6,44.3,38.6c21.2,0,38.1-6.1,50.8-18.3c12.7-12.2,19-28.3,19-48.5V436.8z"/>
			<path class="st3" d="M3694.3,525.2c16,0,35.1-3.5,57.5-10.5v68c-22.8,10.2-50.7,15.3-83.8,15.3c-36.5,0-63.1-9.2-79.8-27.7
				c-16.7-18.5-25-46.2-25-83.1V325.7h-43.7v-38.6l50.3-30.5l26.4-70.7h58.4v71.3h93.7v68.6h-93.7v161.4c0,13,3.6,22.6,10.9,28.7
				C3672.7,522.1,3682.3,525.2,3694.3,525.2z"/>
		</g>
	</g>
	<g>
		<path class="st3" d="M554.7,991.8h-1c-8.6,12.5-21.5,18.8-38.6,18.8c-16.1,0-28.6-5.5-37.6-16.5c-8.9-11-13.4-26.7-13.4-46.9
			c0-20.3,4.5-36,13.5-47.3s21.5-16.8,37.5-16.8c16.7,0,29.5,6.1,38.4,18.2h1.5l-0.8-8.9l-0.4-8.6v-50.1h18.6v174.7h-15.2
			L554.7,991.8z M517.4,994.9c12.7,0,22-3.5,27.7-10.4c5.7-6.9,8.6-18.1,8.6-33.5v-3.9c0-17.4-2.9-29.9-8.7-37.3
			c-5.8-7.4-15.1-11.2-27.8-11.2c-10.9,0-19.3,4.3-25.1,12.7c-5.8,8.5-8.7,20.5-8.7,36c0,15.7,2.9,27.6,8.6,35.6
			C497.8,990.9,506.3,994.9,517.4,994.9z"/>
		<path class="st3" d="M610.3,851.9c0-4.3,1-7.4,3.1-9.4c2.1-2,4.7-3,7.9-3c3,0,5.6,1,7.7,3c2.2,2,3.3,5.1,3.3,9.3
			c0,4.2-1.1,7.3-3.3,9.4c-2.2,2.1-4.8,3.1-7.7,3.1c-3.1,0-5.8-1-7.9-3.1C611.4,859.2,610.3,856.1,610.3,851.9z M630.5,1008.3h-18.6
			V885.2h18.6V1008.3z"/>
		<path class="st3" d="M749.5,974.7c0,11.5-4.3,20.3-12.8,26.5c-8.5,6.2-20.5,9.3-35.9,9.3c-16.3,0-29-2.6-38.2-7.7v-17.3
			c5.9,3,12.3,5.4,19,7.1c6.8,1.7,13.3,2.6,19.6,2.6c9.7,0,17.2-1.6,22.5-4.7c5.2-3.1,7.9-7.8,7.9-14.2c0-4.8-2.1-8.9-6.2-12.3
			c-4.2-3.4-12.3-7.4-24.3-12.1c-11.5-4.3-19.6-8-24.4-11.2c-4.8-3.2-8.4-6.8-10.8-10.8c-2.4-4-3.5-8.9-3.5-14.5
			c0-10,4.1-17.9,12.2-23.8c8.2-5.8,19.4-8.7,33.6-8.7c13.3,0,26.2,2.7,38.9,8.1l-6.6,15.2c-12.4-5.1-23.5-7.6-33.6-7.6
			c-8.8,0-15.5,1.4-20,4.2c-4.5,2.8-6.7,6.6-6.7,11.5c0,3.3,0.8,6.1,2.5,8.4c1.7,2.3,4.4,4.5,8.1,6.6c3.7,2.1,10.9,5.1,21.6,9.1
			c14.6,5.3,24.5,10.7,29.6,16.1C746.9,959.8,749.5,966.6,749.5,974.7z"/>
		<path class="st3" d="M829,1010.6c-17.8,0-31.6-5.5-41.4-16.5c-9.8-11-14.7-26.5-14.7-46.5c0-20.6,5-36.5,14.9-47.7
			c9.9-11.2,24.1-16.8,42.4-16.8c5.9,0,11.8,0.6,17.7,1.9c5.9,1.3,10.6,2.8,13.9,4.5l-5.7,15.8c-4.1-1.6-8.6-3-13.5-4.1
			c-4.9-1.1-9.2-1.6-12.9-1.6c-25,0-37.5,15.9-37.5,47.8c0,15.1,3,26.7,9.2,34.8c6.1,8.1,15.1,12.1,27.1,12.1
			c10.3,0,20.8-2.2,31.6-6.6v16.5C851.8,1008.4,841.5,1010.6,829,1010.6z"/>
		<path class="st3" d="M995.5,946.7c0,20.1-5.1,35.7-15.2,47c-10.1,11.3-24.1,16.9-41.9,16.9c-11,0-20.8-2.6-29.3-7.7
			s-15.1-12.6-19.8-22.2c-4.6-9.7-7-21-7-33.9c0-20.1,5-35.7,15-46.9c10-11.2,24-16.8,41.8-16.8c17.2,0,30.9,5.7,41,17.2
			C990.5,911.6,995.5,927.1,995.5,946.7z M901.7,946.7c0,15.7,3.1,27.7,9.4,35.9c6.3,8.2,15.5,12.4,27.7,12.4
			c12.2,0,21.5-4.1,27.8-12.3c6.3-8.2,9.5-20.2,9.5-36c0-15.6-3.2-27.5-9.5-35.7c-6.3-8.1-15.7-12.2-28-12.2c-12.2,0-21.4,4-27.6,12
			C904.9,918.8,901.7,930.8,901.7,946.7z"/>
		<path class="st3" d="M1055.2,1008.3l-46.7-123.1h20l26.5,73c6,17.1,9.5,28.2,10.6,33.2h0.9c0.8-4,3.4-12.2,7.8-24.7
			c4.4-12.5,14.2-39.7,29.5-81.6h20l-46.7,123.1H1055.2z"/>
		<path class="st3" d="M1195.4,1010.6c-18.2,0-32.6-5.5-43.1-16.6c-10.5-11.1-15.8-26.5-15.8-46.2c0-19.8,4.9-35.6,14.7-47.3
			c9.8-11.7,22.9-17.5,39.4-17.5c15.4,0,27.6,5.1,36.6,15.2c9,10.1,13.5,23.5,13.5,40.1v11.8h-84.8c0.4,14.5,4,25.4,11,32.9
			c6.9,7.5,16.7,11.2,29.3,11.2c13.3,0,26.4-2.8,39.3-8.3v16.6c-6.6,2.8-12.8,4.9-18.7,6.1
			C1210.8,1009.9,1203.7,1010.6,1195.4,1010.6z M1190.4,898.6c-9.9,0-17.8,3.2-23.6,9.7c-5.9,6.4-9.3,15.3-10.4,26.7h64.4
			c0-11.8-2.6-20.8-7.9-27C1207.6,901.7,1200.1,898.6,1190.4,898.6z"/>
		<path class="st3" d="M1328.6,883c5.5,0,10.4,0.4,14.7,1.3l-2.6,17.3c-5.1-1.1-9.6-1.7-13.5-1.7c-10,0-18.5,4-25.5,12.1
			c-7.1,8.1-10.6,18.2-10.6,30.2v66h-18.6V885.2h15.4l2.1,22.8h0.9c4.6-8,10.1-14.2,16.5-18.5C1313.8,885.1,1320.9,883,1328.6,883z"
			/>
		<path class="st3" d="M1465.9,995.2c3.3,0,6.5-0.2,9.5-0.7c3.1-0.5,5.5-1,7.3-1.5v14.3c-2,1-5,1.8-8.9,2.4c-3.9,0.6-7.5,1-10.6,1
			c-23.8,0-35.7-12.5-35.7-37.6v-73.2h-17.6v-9l17.6-7.7l7.9-26.3h10.8v28.5h35.7v14.5h-35.7v72.4c0,7.4,1.8,13.1,5.3,17.1
			C1454.9,993.2,1459.7,995.2,1465.9,995.2z"/>
		<path class="st3" d="M1591.5,1008.3v-79.6c0-10-2.3-17.5-6.9-22.5c-4.6-4.9-11.7-7.4-21.5-7.4c-13,0-22.4,3.5-28.4,10.6
			c-6,7-8.9,18.6-8.9,34.6v64.4h-18.6V833.6h18.6v52.9c0,6.4-0.3,11.6-0.9,15.8h1.1c3.7-5.9,8.9-10.6,15.7-14
			c6.8-3.4,14.5-5.1,23.2-5.1c15,0,26.3,3.6,33.9,10.7c7.5,7.2,11.3,18.5,11.3,34.1v80.3H1591.5z"/>
		<path class="st3" d="M1700.5,1010.6c-18.2,0-32.6-5.5-43.1-16.6c-10.5-11.1-15.8-26.5-15.8-46.2c0-19.8,4.9-35.6,14.7-47.3
			c9.8-11.7,22.9-17.5,39.4-17.5c15.4,0,27.6,5.1,36.6,15.2c9,10.1,13.5,23.5,13.5,40.1v11.8h-84.8c0.4,14.5,4,25.4,11,32.9
			c6.9,7.5,16.7,11.2,29.3,11.2c13.3,0,26.4-2.8,39.3-8.3v16.6c-6.6,2.8-12.8,4.9-18.7,6.1
			C1715.9,1009.9,1708.8,1010.6,1700.5,1010.6z M1695.4,898.6c-9.9,0-17.8,3.2-23.6,9.7c-5.9,6.4-9.3,15.3-10.4,26.7h64.4
			c0-11.8-2.6-20.8-7.9-27C1712.6,901.7,1705.1,898.6,1695.4,898.6z"/>
		<path class="st3" d="M1994.1,1008.3v-80.1c0-9.8-2.1-17.2-6.3-22.1c-4.2-4.9-10.7-7.4-19.5-7.4c-11.6,0-20.2,3.3-25.7,10
			c-5.5,6.7-8.3,16.9-8.3,30.8v68.7h-18.6v-80.1c0-9.8-2.1-17.2-6.3-22.1c-4.2-4.9-10.7-7.4-19.7-7.4c-11.7,0-20.2,3.5-25.7,10.5
			c-5.4,7-8.1,18.5-8.1,34.4v64.6h-18.6V885.2h15.2l3,16.8h0.9c3.5-6,8.5-10.7,14.9-14c6.4-3.4,13.6-5.1,21.5-5.1
			c19.2,0,31.8,7,37.7,20.9h0.9c3.7-6.4,9-11.5,15.9-15.3c7-3.7,14.9-5.6,23.8-5.6c13.9,0,24.4,3.6,31.3,10.7
			c6.9,7.2,10.4,18.6,10.4,34.3v80.3H1994.1z"/>
		<path class="st3" d="M2068.7,885.2v79.8c0,10,2.3,17.5,6.9,22.5c4.6,4.9,11.7,7.4,21.5,7.4c12.9,0,22.3-3.5,28.2-10.6
			c6-7,8.9-18.5,8.9-34.5v-64.7h18.6v123.1h-15.4l-2.7-16.5h-1c-3.8,6.1-9.1,10.7-15.9,13.9c-6.8,3.2-14.5,4.8-23.2,4.8
			c-15,0-26.2-3.6-33.6-10.7c-7.5-7.1-11.2-18.5-11.2-34.1v-80.5H2068.7z"/>
		<path class="st3" d="M2271.8,974.7c0,11.5-4.3,20.3-12.8,26.5c-8.5,6.2-20.5,9.3-35.9,9.3c-16.3,0-29-2.6-38.2-7.7v-17.3
			c5.9,3,12.3,5.4,19,7.1c6.8,1.7,13.3,2.6,19.6,2.6c9.7,0,17.2-1.6,22.5-4.7c5.2-3.1,7.9-7.8,7.9-14.2c0-4.8-2.1-8.9-6.2-12.3
			c-4.2-3.4-12.3-7.4-24.3-12.1c-11.5-4.3-19.6-8-24.4-11.2c-4.8-3.2-8.4-6.8-10.8-10.8c-2.4-4-3.5-8.9-3.5-14.5
			c0-10,4.1-17.9,12.2-23.8c8.2-5.8,19.4-8.7,33.6-8.7c13.3,0,26.2,2.7,38.9,8.1l-6.6,15.2c-12.4-5.1-23.5-7.6-33.6-7.6
			c-8.8,0-15.5,1.4-20,4.2c-4.5,2.8-6.7,6.6-6.7,11.5c0,3.3,0.8,6.1,2.5,8.4c1.7,2.3,4.4,4.5,8.1,6.6c3.7,2.1,10.9,5.1,21.6,9.1
			c14.6,5.3,24.5,10.7,29.6,16.1C2269.2,959.8,2271.8,966.6,2271.8,974.7z"/>
		<path class="st3" d="M2300.5,851.9c0-4.3,1-7.4,3.1-9.4c2.1-2,4.7-3,7.9-3c3,0,5.6,1,7.7,3c2.2,2,3.3,5.1,3.3,9.3
			c0,4.2-1.1,7.3-3.3,9.4c-2.2,2.1-4.8,3.1-7.7,3.1c-3.1,0-5.8-1-7.9-3.1C2301.6,859.2,2300.5,856.1,2300.5,851.9z M2320.7,1008.3
			h-18.6V885.2h18.6V1008.3z"/>
		<path class="st3" d="M2409.4,1010.6c-17.8,0-31.6-5.5-41.4-16.5c-9.8-11-14.7-26.5-14.7-46.5c0-20.6,5-36.5,14.9-47.7
			c9.9-11.2,24.1-16.8,42.4-16.8c5.9,0,11.8,0.6,17.7,1.9c5.9,1.3,10.6,2.8,13.9,4.5l-5.7,15.8c-4.1-1.6-8.6-3-13.5-4.1
			c-4.9-1.1-9.2-1.6-12.9-1.6c-25,0-37.5,15.9-37.5,47.8c0,15.1,3,26.7,9.2,34.8c6.1,8.1,15.1,12.1,27.1,12.1
			c10.3,0,20.8-2.2,31.6-6.6v16.5C2432.3,1008.4,2421.9,1010.6,2409.4,1010.6z"/>
		<path class="st3" d="M2510,885.2h20l27,70.2c5.9,16,9.6,27.6,11,34.7h0.9c1-3.8,3-10.3,6.1-19.6c3.1-9.2,13.3-37.7,30.5-85.3h20
			l-52.9,140.2c-5.2,13.9-11.4,23.7-18.4,29.5c-7,5.8-15.6,8.7-25.8,8.7c-5.7,0-11.3-0.6-16.8-1.9v-14.9c4.1,0.9,8.7,1.3,13.8,1.3
			c12.8,0,21.9-7.2,27.4-21.6l6.9-17.5L2510,885.2z"/>
		<path class="st3" d="M2751.6,946.7c0,20.1-5.1,35.7-15.2,47c-10.1,11.3-24.1,16.9-41.9,16.9c-11,0-20.8-2.6-29.3-7.7
			s-15.1-12.6-19.8-22.2c-4.6-9.7-7-21-7-33.9c0-20.1,5-35.7,15-46.9c10-11.2,24-16.8,41.8-16.8c17.2,0,30.9,5.7,41,17.2
			C2746.6,911.6,2751.6,927.1,2751.6,946.7z M2657.9,946.7c0,15.7,3.1,27.7,9.4,35.9c6.3,8.2,15.5,12.4,27.7,12.4
			c12.2,0,21.5-4.1,27.8-12.3c6.3-8.2,9.5-20.2,9.5-36c0-15.6-3.2-27.5-9.5-35.7c-6.3-8.1-15.7-12.2-28-12.2c-12.2,0-21.4,4-27.6,12
			C2661,918.8,2657.9,930.8,2657.9,946.7z"/>
		<path class="st3" d="M2801.8,885.2v79.8c0,10,2.3,17.5,6.9,22.5c4.6,4.9,11.7,7.4,21.5,7.4c12.9,0,22.3-3.5,28.2-10.6
			c6-7,8.9-18.5,8.9-34.5v-64.7h18.6v123.1h-15.4l-2.7-16.5h-1c-3.8,6.1-9.1,10.7-15.9,13.9c-6.8,3.2-14.5,4.8-23.2,4.8
			c-15,0-26.2-3.6-33.6-10.7c-7.5-7.1-11.2-18.5-11.2-34.1v-80.5H2801.8z"/>
		<path class="st3" d="M3003.9,1008.3h-18.6V833.6h18.6V1008.3z"/>
		<path class="st3" d="M3149.6,946.7c0,20.1-5.1,35.7-15.2,47c-10.1,11.3-24.1,16.9-41.9,16.9c-11,0-20.8-2.6-29.3-7.7
			s-15.1-12.6-19.8-22.2c-4.6-9.7-7-21-7-33.9c0-20.1,5-35.7,15-46.9c10-11.2,24-16.8,41.8-16.8c17.2,0,30.9,5.7,41,17.2
			C3144.6,911.6,3149.6,927.1,3149.6,946.7z M3055.9,946.7c0,15.7,3.1,27.7,9.4,35.9c6.3,8.2,15.5,12.4,27.7,12.4
			c12.2,0,21.5-4.1,27.8-12.3c6.3-8.2,9.5-20.2,9.5-36c0-15.6-3.2-27.5-9.5-35.7c-6.3-8.1-15.7-12.2-28-12.2c-12.2,0-21.4,4-27.6,12
			C3059,918.8,3055.9,930.8,3055.9,946.7z"/>
		<path class="st3" d="M3209.3,1008.3l-46.7-123.1h20l26.5,73c6,17.1,9.5,28.2,10.6,33.2h0.9c0.8-4,3.4-12.2,7.8-24.7
			c4.4-12.5,14.2-39.7,29.5-81.6h20l-46.7,123.1H3209.3z"/>
		<path class="st3" d="M3349.5,1010.6c-18.2,0-32.6-5.5-43.1-16.6c-10.5-11.1-15.8-26.5-15.8-46.2c0-19.8,4.9-35.6,14.7-47.3
			c9.8-11.7,22.9-17.5,39.4-17.5c15.4,0,27.6,5.1,36.6,15.2c9,10.1,13.5,23.5,13.5,40.1v11.8H3310c0.4,14.5,4,25.4,11,32.9
			c6.9,7.5,16.7,11.2,29.3,11.2c13.3,0,26.4-2.8,39.3-8.3v16.6c-6.6,2.8-12.8,4.9-18.7,6.1
			C3364.9,1009.9,3357.9,1010.6,3349.5,1010.6z M3344.5,898.6c-9.9,0-17.8,3.2-23.6,9.7c-5.9,6.4-9.3,15.3-10.4,26.7h64.4
			c0-11.8-2.6-20.8-7.9-27C3361.7,901.7,3354.2,898.6,3344.5,898.6z"/>
	</g>
</g>
</svg>
