<svg xmlns="http://www.w3.org/2000/svg" viewBox="0 0 3858 1158"><title>logo</title><g id="Layer_2" data-name="Layer 2"><path d="M467.7,118c-166.24,0-301,134.76-301,301s134.76,301,301,301,301-134.76,301-301S633.94,118,467.7,118ZM689.15,423.69l-.06,2.43c0,.63,0,1.27-.06,1.9,0,1.39-.11,2.78-.19,4.18,0,.09,0,.18,0,.27a220,220,0,0,1-76.67,155A211.33,211.33,0,0,1,579.3,611c-36.93,21.76-77.73,31.8-114.12,28.28v-64.7c25.92-.42,49-6.22,69-15.84l.41-.2c.49-.23,1-.48,1.45-.72a157.87,157.87,0,0,0,31.75-21.16,156.24,156.24,0,0,0,31.3-37.08c.29-.49.59-1,.88-1.48l.46-.77a152.85,152.85,0,0,0-9.36-169.12l-.33-.45-1.26-1.66a157.06,157.06,0,0,0-50.86-43,154.11,154.11,0,0,0-21.85-9.49,147.33,147.33,0,0,0-19.21-5.09,158.69,158.69,0,0,0-53.41-1.28,155.54,155.54,0,0,0-79.48,37l-.7.61-.82.75a153,153,0,0,0-39.39,57.56A171.48,171.48,0,0,0,314.9,395c-.43,2.78-.81,5.59-1.1,8.42-6.31,61.73,33.51,135.91,80.61,151.29L410,602.22l-48.07,12.94c-125-70.88-138.41-215.33-89-303a227.67,227.67,0,0,1,13.27-20.78,197,197,0,0,1,22.54-27.16,224.41,224.41,0,0,1,75.42-49.9,220.34,220.34,0,0,1,149.64-6q3,.94,5.94,2l1.32.46,3,1.09,1.93.73,2.57,1,1.86.75c.92.38,1.85.75,2.76,1.14l1.17.5A221.65,221.65,0,0,1,689.18,419.48v.58Q689.18,421.88,689.15,423.69Z" style="fill:#fff"/><text transform="translate(834.56 591.93)" style="font-size:613.2683715820312px;fill:#fff;font-family:OpenSans-Bold, Open Sans;font-weight:700">onRepeat</text><text transform="translate(451.18 1008.31)" style="font-size:230px;fill:#fff;font-family:OpenSans-Regular, Open Sans">discover the music you love</text></g></svg>