<?xml version="1.0" encoding="utf-8"?>
<!-- Generator: Adobe Illustrator 22.0.1, SVG Export Plug-In . SVG Version: 6.00 Build 0)  -->
<svg version="1.1" xmlns="http://www.w3.org/2000/svg" xmlns:xlink="http://www.w3.org/1999/xlink" x="0px" y="0px"
	 viewBox="0 0 766 766" style="enable-background:new 0 0 766 766;" xml:space="preserve">
<style type="text/css">
	.st0{fill:#ECFF37;}
	.st1{fill:#FF0F4D;}
	.st2{fill:#FFFFFF;}
</style>
<g id="Layer_1">
</g>
<g id="Layer_2">
	<path class="st0" d="M383,186c-108.8,0-197,88.2-197,197s88.2,197,197,197s197-88.2,197-197S491.8,186,383,186z M527.9,386.1
		c0,0.5,0,1.1,0,1.6c0,0.4,0,0.8,0,1.2c0,0.9-0.1,1.8-0.1,2.7c0,0.1,0,0.1,0,0.2c-0.9,16-4.5,32.1-11,47.6
		c-9,21.7-22.9,39.8-39.2,53.8c-6.8,5.9-14,11.1-21.5,15.4c-24.2,14.2-50.9,20.8-74.7,18.5v-42.3c17-0.3,32.1-4.1,45.1-10.4
		c0.1,0,0.2-0.1,0.3-0.1c0.3-0.2,0.6-0.3,0.9-0.5c7.7-3.9,14.7-8.6,20.8-13.8c8.2-7.1,15.1-15.3,20.5-24.3c0.2-0.3,0.4-0.6,0.6-1
		c0.1-0.2,0.2-0.3,0.3-0.5c9.2-15.9,13.8-33.8,13.8-51.1c-0.3-22-7.6-42.8-19.9-59.6c-0.1-0.1-0.1-0.2-0.2-0.3
		c-0.3-0.4-0.5-0.7-0.8-1.1c-9-11.7-20.4-21.3-33.3-28.1c-4.6-2.4-9.4-4.5-14.3-6.2c-4.1-1.4-8.3-2.5-12.6-3.3
		c-11.9-2.3-23.7-2.5-35-0.8c-19.9,3.1-37.8,11.6-52,24.2c-0.2,0.1-0.3,0.3-0.5,0.4c-0.2,0.2-0.4,0.3-0.5,0.5
		c-11.1,10.1-20,22.8-25.8,37.7c-2.5,6.5-4.5,13.6-5.8,20.9c-0.3,1.8-0.5,3.7-0.7,5.5c-4.1,40.4,21.9,89,52.8,99l10.2,31.1
		l-31.5,8.5C232,465,223.2,370.5,255.5,313.1c2.7-4.7,5.6-9.3,8.7-13.6c4.4-6.4,9.4-12.4,14.8-17.8c14.4-14.4,31.3-25.4,49.4-32.7
		c30.4-12.3,64.8-14.4,97.9-4c1.3,0.4,2.6,0.8,3.9,1.3c0.3,0.1,0.6,0.2,0.9,0.3c0.7,0.2,1.3,0.5,2,0.7c0.4,0.2,0.8,0.3,1.3,0.5
		c0.6,0.2,1.1,0.4,1.7,0.6c0.4,0.2,0.8,0.3,1.2,0.5c0.6,0.2,1.2,0.5,1.8,0.7c0.3,0.1,0.5,0.2,0.8,0.3
		c53.5,22.9,88.2,75.3,88.2,133.2c0,0.1,0,0.3,0,0.4C528,384.5,527.9,385.3,527.9,386.1z"/>
</g>
</svg>
