<?xml version="1.0" encoding="utf-8"?>
<!-- Generator: Adobe Illustrator 22.0.1, SVG Export Plug-In . SVG Version: 6.00 Build 0)  -->
<svg version="1.1" xmlns="http://www.w3.org/2000/svg" xmlns:xlink="http://www.w3.org/1999/xlink" x="0px" y="0px"
	 viewBox="0 0 766 766" style="enable-background:new 0 0 766 766;" xml:space="preserve">
<style type="text/css">
	.st0{fill:#ECFF37;}
	.st1{fill:#FF0F4D;}
	.st2{fill:#FF114D;}
	.st3{fill:#FFFFFF;}
</style>
<g id="Layer_1">
</g>
<g id="Layer_2">
	<g>
		<g>
			<path class="st0" d="M383,24.4C185,24.4,24.4,185,24.4,383S185,741.6,383,741.6S741.6,581,741.6,383S581,24.4,383,24.4z
				 M646.8,388.6c0,1,0,1.9-0.1,2.9c0,0.8,0,1.5-0.1,2.3c-0.1,1.7-0.1,3.3-0.2,5c0,0.1,0,0.2,0,0.3c-1.6,29.1-8.2,58.4-19.9,86.7
				c-16.4,39.4-41.7,72.4-71.4,97.9c-12.4,10.8-25.6,20.2-39.1,28c-44,25.9-92.6,37.9-135.9,33.7v-77.1c30.9-0.5,58.4-7.4,82.2-18.9
				c0.2-0.1,0.3-0.2,0.5-0.2c0.6-0.3,1.1-0.6,1.7-0.9c14.1-7.1,26.7-15.6,37.8-25.2c14.9-12.9,27.4-27.9,37.3-44.2
				c0.4-0.6,0.7-1.2,1.1-1.8c0.2-0.3,0.4-0.6,0.5-0.9c16.8-29,25.1-61.5,25.2-93c-0.5-40.1-13.8-77.8-36.3-108.5
				c-0.1-0.2-0.3-0.4-0.4-0.5c-0.5-0.7-1-1.3-1.5-2c-16.4-21.3-37.1-38.8-60.6-51.2c-8.4-4.4-17.1-8.2-26-11.3
				c-7.4-2.5-15-4.5-22.9-6.1c-21.6-4.2-43.1-4.6-63.6-1.5c-36.3,5.6-68.8,21.2-94.7,44c-0.3,0.2-0.6,0.5-0.8,0.7
				c-0.3,0.3-0.7,0.6-1,0.9c-20.1,18.4-36.4,41.6-46.9,68.6c-4.6,11.8-8.1,24.7-10.5,38c-0.5,3.3-1,6.7-1.3,10
				c-7.5,73.5,39.9,161.9,96,180.2l18.6,56.6L257,616.7c-148.9-84.4-164.9-256.5-106-360.9c4.9-8.6,10.1-16.9,15.8-24.8
				c8.1-11.7,17.1-22.5,26.9-32.4c26.2-26.3,56.9-46.2,89.8-59.4c55.2-22.4,118-26.3,178.3-7.2c2.4,0.8,4.7,1.5,7.1,2.4
				c0.5,0.2,1,0.4,1.6,0.6c1.2,0.4,2.4,0.9,3.6,1.3c0.8,0.3,1.5,0.6,2.3,0.9c1,0.4,2,0.8,3.1,1.2c0.7,0.3,1.5,0.6,2.2,0.9
				c1.1,0.4,2.2,0.9,3.3,1.3c0.5,0.2,0.9,0.4,1.4,0.6c97.4,41.6,160.6,137,160.6,242.5c0,0.2,0,0.5,0,0.7
				C646.8,385.7,646.8,387.1,646.8,388.6z"/>
		</g>
	</g>
</g>
</svg>
