<?xml version="1.0" standalone="no"?>
<!DOCTYPE svg PUBLIC "-//W3C//DTD SVG 20010904//EN"
 "http://www.w3.org/TR/2001/REC-SVG-20010904/DTD/svg10.dtd">
<svg version="1.0" xmlns="http://www.w3.org/2000/svg"
 width="3201.000000pt" height="3201.000000pt" viewBox="0 0 3201.000000 3201.000000"
 preserveAspectRatio="xMidYMid meet">
<metadata>
Created by potrace 1.11, written by Peter Selinger 2001-2013
</metadata>
<g transform="translate(0.000000,3201.000000) scale(0.100000,-0.100000)"
fill="#000000" stroke="none">
<path d="M15569 30906 c-2 -2 -83 -6 -179 -10 -186 -7 -285 -12 -415 -21 -172
-12 -323 -25 -365 -30 -19 -2 -66 -7 -105 -10 -95 -9 -136 -13 -285 -30 -45
-5 -267 -35 -300 -40 -14 -2 -45 -7 -70 -10 -25 -3 -56 -8 -70 -10 -14 -2 -43
-7 -65 -10 -22 -2 -51 -7 -65 -10 -14 -2 -68 -11 -120 -20 -116 -18 -141 -23
-205 -35 -27 -5 -66 -12 -85 -16 -19 -3 -39 -7 -45 -8 -5 -2 -32 -7 -60 -11
-27 -5 -52 -10 -55 -10 -9 -3 -75 -16 -90 -19 -27 -5 -173 -37 -370 -83 -107
-25 -199 -46 -205 -47 -5 -1 -19 -5 -30 -9 -11 -3 -31 -8 -45 -11 -33 -5 -244
-61 -350 -92 -47 -14 -92 -27 -100 -29 -208 -56 -570 -171 -865 -275 -199 -71
-679 -256 -790 -305 -16 -7 -99 -43 -184 -80 -337 -145 -888 -414 -1185 -579
-66 -36 -120 -66 -122 -66 -3 0 -152 -86 -174 -100 -8 -6 -22 -13 -30 -17 -29
-13 -316 -187 -490 -296 -229 -144 -401 -259 -644 -431 -109 -78 -216 -153
-238 -169 -22 -15 -45 -32 -51 -38 -12 -9 -155 -118 -267 -203 -30 -22 -57
-43 -60 -46 -3 -3 -50 -41 -105 -85 -96 -76 -368 -301 -430 -356 -16 -14 -75
-66 -130 -114 -55 -48 -102 -91 -105 -94 -3 -3 -25 -24 -50 -45 -100 -87 -336
-313 -530 -506 -172 -173 -261 -266 -465 -484 -11 -12 -38 -42 -59 -66 -21
-25 -60 -67 -85 -95 -44 -47 -294 -340 -372 -436 -125 -152 -116 -141 -169
-209 -19 -25 -37 -47 -40 -50 -15 -14 -295 -388 -386 -515 -24 -33 -52 -71
-62 -85 -62 -82 -407 -601 -475 -715 -13 -22 -54 -88 -90 -146 -54 -88 -239
-406 -304 -524 -141 -253 -387 -736 -482 -945 -24 -52 -54 -117 -66 -145 -13
-27 -40 -88 -60 -135 -21 -47 -46 -103 -55 -125 -32 -72 -92 -218 -140 -340
-26 -66 -50 -129 -55 -140 -5 -11 -9 -22 -10 -25 -1 -3 -7 -17 -13 -32 -31
-74 -221 -607 -227 -638 -2 -7 -114 -358 -130 -405 -12 -37 -75 -262 -125
-445 -19 -71 -109 -428 -115 -460 -2 -8 -15 -64 -29 -125 -24 -107 -95 -450
-100 -490 -2 -11 -6 -33 -9 -50 -4 -16 -9 -43 -12 -60 -3 -16 -9 -55 -15 -85
-14 -79 -21 -121 -25 -150 -8 -57 -16 -107 -21 -130 -10 -55 -12 -67 -18 -120
-4 -30 -8 -66 -11 -80 -5 -31 -23 -162 -29 -215 -3 -22 -10 -76 -15 -120 -6
-44 -13 -109 -16 -145 -4 -36 -8 -76 -10 -90 -2 -14 -7 -59 -10 -100 -4 -41
-8 -91 -10 -110 -7 -74 -15 -179 -20 -265 -3 -49 -8 -115 -10 -145 -5 -57 -11
-181 -21 -425 -14 -360 -4 -1054 21 -1420 2 -33 7 -105 10 -160 3 -55 8 -116
10 -135 3 -19 7 -71 10 -115 3 -44 8 -91 10 -105 2 -14 7 -57 10 -97 4 -40 8
-85 10 -100 2 -15 6 -57 10 -93 4 -36 10 -92 15 -125 5 -33 11 -78 14 -100 3
-22 8 -65 12 -95 3 -30 8 -63 10 -73 3 -20 22 -151 30 -207 2 -19 6 -42 9 -50
2 -8 7 -37 10 -65 4 -27 8 -57 10 -65 2 -8 7 -31 10 -50 3 -19 10 -57 15 -85
5 -27 12 -66 15 -85 3 -19 20 -102 36 -185 17 -82 32 -161 35 -175 2 -14 13
-65 24 -115 11 -49 23 -100 25 -113 3 -12 7 -30 9 -40 12 -49 38 -159 41 -172
14 -67 95 -374 145 -550 223 -785 507 -1545 852 -2280 56 -119 267 -541 311
-623 21 -37 52 -95 71 -130 78 -144 95 -175 125 -225 17 -29 31 -55 31 -57 0
-7 252 -428 345 -575 36 -57 393 -591 431 -645 196 -276 615 -823 691 -903 7
-7 29 -34 50 -60 21 -26 40 -49 43 -52 3 -3 48 -54 100 -115 99 -115 119 -137
215 -245 228 -255 689 -724 929 -945 65 -61 128 -119 140 -130 12 -11 59 -54
106 -95 47 -41 94 -83 105 -94 91 -83 583 -486 755 -618 453 -346 1101 -783
1490 -1004 30 -17 85 -49 123 -72 37 -23 69 -42 71 -42 3 0 46 -24 98 -53 90
-52 137 -78 300 -166 157 -84 759 -381 773 -381 2 0 46 -20 99 -45 53 -25 99
-45 101 -45 2 0 32 -13 67 -29 331 -151 1017 -409 1444 -542 252 -78 618 -183
678 -195 12 -2 32 -8 46 -14 14 -5 34 -11 45 -13 11 -2 31 -7 45 -10 46 -12
325 -79 348 -83 12 -2 62 -14 110 -25 48 -12 98 -23 112 -25 14 -2 36 -7 50
-10 30 -7 57 -13 90 -19 14 -2 81 -16 150 -29 123 -24 212 -40 280 -51 19 -3
58 -10 85 -15 28 -5 68 -12 90 -15 23 -3 52 -7 65 -10 14 -3 72 -11 130 -20
58 -8 123 -17 145 -20 41 -6 62 -9 150 -20 28 -3 64 -8 80 -10 17 -2 57 -7 90
-10 33 -3 71 -8 85 -10 14 -2 57 -6 95 -10 39 -3 90 -8 115 -11 25 -2 72 -7
105 -9 33 -3 83 -7 110 -10 47 -4 99 -8 295 -20 730 -48 1636 -32 2360 40 116
12 148 15 195 20 96 11 120 14 175 20 61 7 122 14 160 20 41 6 113 17 143 21
67 8 118 16 207 30 52 9 106 17 120 19 35 5 251 43 275 48 22 5 85 16 125 23
58 10 285 57 410 86 74 16 146 32 159 34 14 3 28 7 31 9 4 2 20 6 36 9 16 3
74 17 129 31 55 14 107 27 116 29 62 15 239 63 309 83 47 14 90 26 95 27 158
39 704 217 1010 329 236 86 563 216 702 278 23 11 44 19 47 19 3 0 29 11 58
24 29 13 78 35 108 49 288 128 757 356 1000 488 158 85 380 209 471 264 47 29
92 55 100 59 8 3 28 15 44 26 17 11 43 27 58 35 159 90 663 421 927 609 128
91 471 346 537 400 10 8 65 52 123 98 58 45 110 87 116 93 6 5 30 26 54 45 24
19 62 51 85 70 23 19 55 46 72 60 53 43 383 333 439 385 334 310 755 731 949
949 6 6 46 51 90 101 44 49 89 99 100 111 11 11 31 34 45 50 14 16 63 74 110
129 225 262 576 708 740 940 12 17 55 77 97 135 87 121 394 583 474 713 141
229 341 572 450 772 171 312 407 792 534 1085 21 47 47 108 60 135 23 52 73
171 130 310 43 105 48 119 50 125 0 3 19 52 42 110 107 274 215 587 317 915
46 149 86 279 89 290 3 11 28 101 55 200 28 99 53 191 56 205 3 14 21 88 41
165 19 77 53 219 74 315 42 184 43 190 66 310 7 41 20 107 29 145 8 39 17 88
20 109 4 21 8 48 11 60 3 12 7 32 9 46 2 14 9 52 15 85 5 33 13 78 16 100 3
23 7 50 9 60 2 11 7 40 11 65 3 25 9 59 12 75 3 17 6 41 8 55 3 29 16 128 20
150 1 8 6 44 10 80 4 36 9 74 11 85 1 11 5 43 9 70 3 28 8 64 10 80 2 17 7 60
10 95 4 36 8 81 10 100 2 19 6 64 9 100 3 36 8 90 11 120 8 86 19 232 30 400
27 423 27 1362 0 1765 -2 33 -7 101 -10 150 -8 121 -14 201 -20 255 -3 25 -8
79 -11 120 -7 100 -10 136 -18 195 -6 51 -11 87 -21 185 -3 30 -8 66 -10 80
-2 14 -7 50 -10 80 -3 30 -10 82 -15 115 -5 33 -12 80 -15 105 -9 65 -12 84
-30 195 -9 55 -18 109 -19 120 -10 60 -19 112 -22 130 -2 11 -11 61 -20 110
-8 50 -19 106 -24 125 -5 19 -11 51 -14 70 -13 86 -154 713 -171 763 -2 6 -7
23 -9 37 -9 48 -117 437 -167 600 -99 327 -304 921 -382 1110 -6 14 -11 27
-12 30 -1 3 -5 14 -10 25 -4 11 -32 79 -61 150 -53 132 -163 389 -204 480 -13
28 -41 88 -63 135 -22 47 -50 110 -64 140 -36 81 -221 451 -274 550 -77 143
-125 233 -147 272 -12 21 -38 68 -58 105 -217 396 -570 950 -888 1393 -151
211 -439 589 -535 702 -11 13 -66 79 -122 148 -404 490 -1000 1113 -1450 1515
-521 466 -940 801 -1464 1171 -413 291 -1033 677 -1433 890 -37 19 -96 51
-132 71 -191 103 -638 323 -840 413 -47 21 -110 49 -140 63 -84 38 -323 140
-430 182 -52 20 -108 43 -125 50 -103 44 -515 193 -769 277 -287 95 -695 217
-916 273 -58 15 -112 29 -120 31 -95 24 -427 103 -505 119 -165 34 -537 107
-560 110 -16 2 -84 13 -150 24 -66 11 -138 23 -160 26 -50 7 -115 17 -135 20
-59 10 -304 41 -465 60 -27 3 -63 7 -80 9 -16 2 -64 7 -105 10 -41 4 -91 9
-110 11 -61 8 -240 22 -365 30 -239 14 -297 18 -345 21 -70 6 -1126 15 -1131
10z m861 -3980 c306 -14 509 -28 600 -41 14 -2 61 -6 104 -10 43 -4 86 -8 95
-10 9 -1 45 -6 81 -10 36 -4 72 -9 81 -10 8 -2 42 -6 75 -9 32 -4 68 -9 79
-11 11 -2 38 -7 60 -10 22 -3 56 -8 75 -11 19 -3 58 -9 85 -14 28 -5 64 -11
80 -14 72 -11 120 -20 280 -53 94 -19 181 -37 195 -39 138 -28 498 -119 690
-176 58 -16 119 -34 135 -38 66 -17 411 -133 580 -195 262 -96 287 -105 320
-120 17 -7 66 -27 110 -45 44 -17 96 -38 115 -47 19 -8 49 -21 65 -28 213 -91
672 -312 860 -415 92 -50 234 -128 285 -157 86 -49 472 -285 480 -293 6 -6 61
-43 75 -50 13 -7 159 -104 165 -110 3 -3 41 -30 85 -60 105 -71 323 -230 405
-295 36 -28 96 -75 134 -105 38 -29 79 -61 90 -71 12 -9 55 -45 96 -79 41 -34
86 -72 100 -83 14 -12 55 -47 90 -77 36 -30 72 -62 80 -70 8 -8 55 -51 105
-95 224 -200 550 -526 765 -765 57 -63 109 -120 114 -126 6 -6 29 -32 51 -58
22 -27 48 -58 59 -70 10 -11 35 -41 55 -66 20 -25 41 -49 47 -55 35 -32 308
-386 465 -605 177 -244 425 -625 543 -830 20 -36 41 -72 46 -80 89 -146 345
-638 437 -840 14 -30 29 -63 34 -73 28 -53 140 -315 200 -465 139 -347 257
-683 348 -997 23 -77 46 -154 51 -170 12 -39 129 -501 135 -537 3 -14 16 -77
29 -140 14 -62 27 -129 30 -149 3 -20 8 -42 10 -50 3 -8 7 -30 10 -49 3 -19 7
-44 9 -55 18 -91 42 -232 52 -300 3 -22 7 -51 10 -65 2 -14 7 -47 10 -75 3
-27 8 -63 10 -80 8 -53 22 -168 29 -235 3 -25 7 -70 11 -100 3 -30 8 -77 11
-105 2 -27 7 -81 9 -120 3 -38 7 -92 10 -120 27 -287 27 -1307 0 -1529 -2 -17
-6 -67 -10 -111 -13 -181 -23 -284 -56 -540 -19 -153 -20 -164 -34 -245 -2
-14 -7 -45 -10 -70 -3 -25 -7 -52 -10 -60 -2 -8 -7 -35 -10 -60 -3 -25 -8 -52
-10 -60 -2 -8 -7 -35 -10 -60 -4 -24 -8 -47 -10 -50 -2 -3 -6 -21 -9 -40 -14
-84 -66 -332 -97 -465 -18 -76 -72 -280 -135 -515 -71 -263 -293 -903 -394
-1135 -16 -38 -31 -74 -35 -85 -3 -9 -35 -84 -45 -105 -5 -11 -21 -47 -35 -80
-83 -194 -357 -742 -463 -927 -119 -208 -163 -281 -253 -425 -191 -305 -521
-776 -681 -970 -18 -22 -46 -57 -63 -79 -51 -66 -175 -214 -280 -334 -100
-116 -127 -145 -245 -274 -99 -108 -502 -509 -619 -616 -57 -52 -109 -99 -115
-105 -10 -9 -95 -83 -222 -194 -183 -160 -630 -507 -829 -644 -657 -452 -1386
-856 -2035 -1127 -69 -29 -138 -58 -155 -66 -223 -98 -802 -296 -1129 -385
-410 -112 -624 -159 -991 -220 -167 -28 -165 -27 -215 -34 -25 -3 -56 -8 -70
-10 -14 -2 -50 -6 -80 -10 -30 -3 -77 -8 -105 -12 -67 -7 -96 -10 -185 -18
-41 -3 -91 -8 -110 -10 -229 -27 -942 -26 -1225 2 -33 3 -71 6 -85 6 l-25 1 0
1603 c0 882 2 1603 5 1604 3 1 37 2 75 4 286 12 355 16 395 20 25 3 79 7 120
10 109 8 170 13 215 19 22 3 67 8 100 11 33 4 67 8 75 10 8 2 40 7 70 10 30 3
66 8 80 10 14 3 39 7 55 9 17 3 59 10 95 16 36 6 74 12 85 14 11 2 61 11 110
21 50 9 101 19 115 21 78 14 315 70 445 105 708 190 1342 455 1950 817 185
110 562 356 585 383 3 3 28 20 55 39 28 19 52 36 55 39 3 3 43 35 90 71 130
99 272 216 405 334 253 226 557 538 758 781 32 38 67 80 77 91 10 12 42 52 71
90 30 38 56 71 59 74 6 6 126 167 197 265 71 98 269 402 335 515 393 673 663
1334 852 2085 19 77 37 151 39 165 3 14 10 43 15 65 6 22 13 54 16 70 3 17 7
40 10 51 2 12 7 37 10 55 5 32 9 52 21 109 3 14 7 43 10 65 3 22 10 63 15 90
5 28 12 73 15 100 3 28 8 61 11 75 2 14 6 46 9 73 3 26 7 60 9 75 3 15 7 61
11 102 3 41 8 91 10 110 32 252 37 777 10 1110 -2 25 -6 83 -10 129 -4 47 -8
92 -10 100 -1 9 -6 52 -11 96 -4 44 -8 82 -9 85 -1 3 -5 37 -10 75 -5 39 -9
72 -10 75 0 3 -4 28 -9 55 -14 97 -17 111 -27 170 -6 33 -13 74 -16 90 -2 17
-13 68 -23 115 -10 47 -21 99 -24 115 -5 26 -22 96 -82 340 -8 33 -19 74 -24
90 -6 17 -24 77 -41 135 -159 542 -396 1097 -699 1635 -103 183 -299 488 -444
690 -70 98 -241 322 -256 335 -3 3 -25 30 -50 60 -25 30 -49 60 -55 66 -5 6
-32 37 -60 69 -98 115 -172 193 -385 405 -246 246 -266 265 -450 421 -697 591
-1465 1041 -2305 1354 -143 53 -428 147 -484 160 -9 3 -41 11 -71 20 -65 19
-48 14 -235 60 -206 50 -264 63 -307 69 -21 3 -58 10 -83 16 -25 6 -62 13 -83
15 -20 3 -48 8 -62 11 -14 2 -36 6 -49 9 -13 2 -49 7 -80 11 -31 3 -58 8 -61
9 -3 2 -32 6 -65 10 -33 3 -69 8 -80 9 -11 2 -49 7 -85 11 -36 3 -78 8 -95 10
-16 2 -66 7 -110 10 -44 4 -98 9 -120 11 -227 23 -845 22 -1140 -1 -101 -8
-201 -17 -230 -20 -16 -2 -57 -7 -90 -10 -33 -3 -71 -8 -85 -10 -14 -2 -47 -6
-75 -10 -77 -9 -339 -53 -410 -68 -35 -8 -105 -19 -107 -17 -2 1 -16 -3 -31
-9 -15 -6 -41 -13 -57 -16 -16 -3 -68 -14 -117 -26 -48 -12 -95 -22 -104 -24
-90 -18 -688 -203 -774 -240 -16 -7 -86 -34 -155 -60 -69 -26 -145 -57 -170
-67 -25 -11 -63 -28 -85 -38 -166 -73 -230 -103 -380 -178 -169 -84 -207 -104
-360 -190 -449 -252 -911 -583 -1315 -942 -112 -99 -464 -451 -566 -565 -123
-137 -256 -298 -368 -445 -36 -47 -69 -90 -73 -95 -95 -123 -344 -492 -398
-590 -6 -11 -23 -38 -37 -60 -101 -160 -322 -589 -422 -820 -31 -71 -61 -139
-66 -150 -78 -166 -304 -834 -345 -1020 -2 -11 -20 -82 -39 -157 -33 -127
-119 -538 -130 -618 -3 -19 -7 -55 -11 -80 -3 -25 -8 -56 -10 -70 -3 -14 -7
-51 -10 -83 -4 -32 -8 -66 -10 -75 -1 -9 -6 -55 -10 -102 -4 -47 -9 -98 -11
-115 -22 -222 -22 -723 0 -1025 6 -80 18 -215 21 -230 1 -8 6 -53 11 -100 4
-47 8 -87 9 -90 2 -7 19 -129 30 -210 3 -19 7 -46 10 -60 3 -14 8 -43 11 -65
46 -311 184 -859 313 -1250 77 -233 186 -529 235 -639 8 -17 35 -78 59 -136
158 -368 331 -703 571 -1106 72 -122 305 -464 417 -614 120 -161 307 -389 425
-520 109 -120 379 -384 489 -479 61 -51 124 -105 140 -120 131 -114 474 -348
655 -448 162 -90 393 -195 529 -242 90 -31 97 -36 106 -73 4 -18 8 -35 9 -38
1 -3 73 -221 160 -485 87 -264 194 -590 238 -725 44 -135 97 -297 118 -360
128 -384 231 -703 228 -705 -2 -2 -41 -13 -88 -25 -47 -12 -114 -29 -150 -40
-120 -33 -406 -110 -428 -115 -12 -2 -26 -6 -30 -9 -5 -3 -19 -7 -33 -10 -13
-3 -60 -14 -104 -26 -44 -12 -87 -24 -95 -26 -8 -2 -89 -23 -180 -48 -287 -78
-433 -117 -507 -137 -141 -37 -219 -58 -368 -99 -311 -85 -405 -108 -410 -100
-3 4 -28 20 -57 35 -28 15 -124 71 -212 124 -89 54 -172 104 -185 112 -14 8
-30 17 -35 22 -6 4 -112 74 -236 156 -1109 731 -2039 1602 -2817 2636 -97 129
-309 429 -358 506 -198 313 -255 405 -327 529 -141 241 -232 412 -364 680 -73
148 -114 236 -229 495 -31 70 -102 246 -104 258 0 4 -7 20 -15 35 -57 110
-341 955 -381 1132 -2 8 -20 78 -40 155 -21 77 -39 147 -40 155 -2 8 -19 83
-39 165 -19 83 -48 218 -65 300 -31 152 -36 178 -46 250 -4 22 -8 47 -10 55
-2 8 -7 30 -10 48 -3 17 -7 44 -10 60 -11 68 -25 161 -30 207 -4 28 -8 57 -10
65 -3 8 -7 40 -10 70 -3 30 -8 73 -11 95 -3 22 -7 51 -9 65 -2 14 -6 55 -10
92 -3 37 -7 75 -9 85 -2 10 -7 59 -11 108 -4 50 -9 108 -11 130 -2 22 -6 81
-9 130 -3 50 -7 108 -9 130 -18 167 -24 791 -11 1100 11 274 12 293 18 370 4
39 9 108 12 155 3 47 8 101 10 120 3 19 7 64 10 100 3 36 8 74 10 85 2 11 7
51 10 88 4 37 8 77 10 89 3 11 7 44 9 72 3 28 7 60 10 71 2 11 7 43 10 70 9
64 16 114 22 145 2 14 13 79 24 145 11 66 22 131 25 145 3 14 7 35 9 47 3 13
12 58 20 100 9 43 18 89 20 103 28 144 134 577 182 740 14 47 27 93 29 103 6
28 63 208 110 352 110 333 250 693 383 985 16 36 39 88 52 115 30 68 204 414
248 495 55 102 220 389 261 455 21 33 69 110 107 170 38 61 92 145 121 189 29
43 53 82 53 87 0 5 3 9 8 9 4 0 16 16 26 35 11 19 23 35 28 35 4 0 8 5 8 11 0
10 54 90 106 157 11 15 47 65 79 112 122 178 470 627 561 725 11 11 49 54 85
97 219 252 537 575 805 818 115 104 229 204 314 275 52 44 97 82 100 85 7 7
198 160 244 195 22 17 71 54 110 84 331 253 738 525 1141 761 128 75 148 86
265 148 58 30 110 58 115 62 15 11 376 192 490 245 241 113 568 251 820 345
77 28 160 60 185 70 194 78 991 314 1170 346 14 3 50 12 82 20 52 13 218 49
278 60 14 2 72 14 130 25 58 12 114 23 125 24 11 2 36 6 55 9 19 4 49 9 65 12
17 2 55 9 85 14 30 5 75 12 100 15 25 3 56 8 70 10 14 2 43 6 65 9 22 3 56 8
75 10 19 3 60 8 90 11 30 4 66 8 80 10 30 4 110 12 200 20 36 3 81 8 100 10
19 2 78 7 130 10 52 3 115 8 140 10 25 2 124 7 220 10 96 4 176 8 177 9 5 4
580 -2 703 -8z"/>
</g>
</svg>
