<svg xmlns="http://www.w3.org/2000/svg" viewBox="0 0 2013.79 1222.75"><title>logo</title><g id="Layer_2" data-name="Layer 2"><path d="M228.15,90.72a62.71,62.71,0,1,0,62.71,62.71A62.71,62.71,0,0,0,228.15,90.72Zm46.13,63.69c0,.17,0,.34,0,.51s0,.26,0,.39c0,.29,0,.58,0,.87v.06a45.85,45.85,0,0,1-16,32.29,43.86,43.86,0,0,1-6.84,4.9c-7.7,4.54-16.2,6.63-23.78,5.9V185.85a34.22,34.22,0,0,0,14.37-3.3l.09,0,.3-.15a32.25,32.25,0,0,0,13.14-12.14l.18-.31.1-.16a31.84,31.84,0,0,0-2-35.23.36.36,0,0,1-.07-.1l-.27-.34a32.58,32.58,0,0,0-10.59-9,31.14,31.14,0,0,0-4.55-2,31.5,31.5,0,0,0-4-1.06,33.09,33.09,0,0,0-11.12-.27,32.44,32.44,0,0,0-16.56,7.7l-.15.13-.17.16a32,32,0,0,0-8.21,12,36.28,36.28,0,0,0-1.84,6.65c-.09.58-.17,1.16-.23,1.75-1.31,12.86,7,28.32,16.8,31.52l3.24,9.9-10,2.69c-26-14.77-28.84-44.86-18.55-63.12a44.88,44.88,0,0,1,2.77-4.33,41.47,41.47,0,0,1,4.69-5.66,46.87,46.87,0,0,1,15.72-10.4,46,46,0,0,1,31.17-1.26l1.24.42.27.09.64.23.4.15.53.21.39.16.58.23.24.11a46.17,46.17,0,0,1,28.09,42.4v.12C274.29,153.91,274.29,154.16,274.28,154.41Z" style="fill:#ff0f4d"/><text transform="translate(304.58 189.46)" style="font-size:127.7688980102539px;fill:#ff0f4d;font-family:OpenSans-Bold, Open Sans;font-weight:700">onRepeat</text><text transform="translate(340.08 1109.42)" style="font-size:124px;fill:#ff114d;font-family:OpenSans-Light, Open Sans">your music in your house</text><text transform="translate(78.89 716.53)" style="font-size:568.7621459960938px;fill:#ff0f4d;font-family:Reality-Sunday, Reality Sunday">Lo<tspan x="718.9" y="0" style="letter-spacing:0.013321315790066726em">ung</tspan><tspan x="1584.14" y="0">e</tspan></text></g></svg>